PathFileType	4	(X/Y/Z)	C:\Users\WrightLab\Desktop\Jo\P5V43.trc
DataRate	CameraRate	NumFrames	NumMarkers	Units	OrigDataRate	OrigDataStartFrame	OrigNumFrames
100.00	100.00	       13	19	mm	100.00	538	       860
Frame#	Time	Headset_Front			Headset_Back			Headset_Left			Headset_Right			Left_Shoulder			Right_Shoulder			Sternum			C7			Left Elbow			Right Elbow			Left Wrist			Right Wrist			Left ASIS			Right ASIS			S2			Left Knee			Right Knee			Left Ankle			Right Ankle			
		X1	Y1	Z1	X2	Y2	Z2	X3	Y3	Z3	X4	Y4	Z4	X5	Y5	Z5	X6	Y6	Z6	X7	Y7	Z7	X8	Y8	Z8	X9	Y9	Z9	X10	Y10	Z10	X11	Y11	Z11	X12	Y12	Z12	X13	Y13	Z13	X14	Y14	Z14	X15	Y15	Z15	X16	Y16	Z16	X17	Y17	Z17	X18	Y18	Z18	X19	Y19	Z19	

538	5.370	72.36564	1486.44604	326.61328	-58.99860	1557.97327	296.14252							128.21631	1527.68469	-58.79613	-138.81514	1454.78821	254.77711	62.81356	1327.18762	151.79662	-108.86073	1518.80103	20.84080	176.52324	1223.21729	-164.77800	-226.76825	1162.65723	265.48807	231.98068	984.42822	-105.46870	-96.32581	971.72235	354.12271	158.23016	947.18048	14.20455	-16.33541	943.05518	216.47557	-136.21965	978.42792	-90.88159	204.02029	513.16138	-20.04628	-99.82581	470.68921	187.44415	186.86148	99.32150	-54.65208	-388.30042	215.42142	53.05462	
539	5.380	77.21262	1487.23853	330.67630	-53.55742	1559.08777	298.88950							138.87625	1529.04614	-52.88370	-132.35434	1455.78906	255.91522	70.59804	1328.41016	157.14131	-99.98141	1520.59924	22.75311	188.34047	1224.61255	-160.39813	-221.34570	1165.15820	266.34070	244.52406	987.23834	-98.21228	-91.58748	973.71899	356.25909	167.41570	948.23596	19.04280	-10.69807	945.32910	219.07478	-123.62540	979.77136	-87.98280	208.87733	514.29932	-19.70852	-86.16267	470.76453	192.67990	186.60750	99.33553	-54.55494	-374.71140	225.25696	56.14436	
540	5.390	82.33912	1488.24182	334.80811	-48.54335	1560.04114	302.07327							149.02472	1530.15002	-47.50123	-127.72363	1458.42798	258.18265	76.96265	1330.02979	161.08296	-90.63933	1522.00928	24.69035	200.12138	1225.48425	-154.17970	-215.60251	1166.81824	266.82721	255.67273	989.00989	-92.12390	-87.16054	976.08008	358.31870	175.32355	949.08868	24.58003	-4.59041	947.41846	222.68288	-110.85831	980.70294	-85.32123	213.52234	515.24896	-20.70661	-71.79981	473.03864	206.05746	186.79453	99.27071	-54.36427	-360.39410	234.72279	58.16523	
541	5.400	87.22906	1489.29553	339.38300	-43.09031	1561.51501	304.96790							159.44498	1531.14600	-41.77917	-121.79776	1459.76819	258.84293	82.56431	1330.74036	166.23570	-81.77244	1523.74792	26.58756	211.66299	1226.67151	-147.24796	-210.17703	1169.00269	267.24332	267.07449	991.56531	-82.68104	-82.81594	978.37158	360.42694	184.18297	949.82581	30.88452	0.00888	948.67468	224.49156	-97.67029	981.45233	-83.29099	218.35193	515.58807	-21.18436	-57.73938	474.36450	215.40492	187.03973	99.39520	-53.79720	-345.88235	242.94229	61.05634	
542	5.410	91.31062	1490.31934	344.09433	-38.06238	1562.42664	308.15933							168.77037	1531.57007	-36.08490	-116.94911	1461.87537	260.38309	89.00122	1332.25732	171.52193	-72.61643	1525.17480	28.29119	224.18671	1228.60913	-144.26314	-205.24255	1170.67139	268.35953	278.03189	993.57599	-75.07483	-77.84017	980.47089	362.64444	192.29460	950.05841	37.22950	4.56383	950.13257	228.73067	-84.73418	981.91748	-80.42690	224.48601	516.00110	-21.90079	-42.40738	475.27823	226.20546	187.61525	99.38417	-53.36667	-330.77438	250.37421	63.66740	
543	5.420	95.92622	1491.18787	348.49435	-32.86618	1563.07959	310.93292							178.93698	1532.04883	-30.30816	-111.98402	1463.84546	262.13431	94.46312	1332.63538	176.09682	-63.79196	1526.61072	30.73074	236.86571	1229.42651	-137.79022	-199.83076	1172.92969	268.25684	289.30655	994.64240	-66.83934	-73.47638	982.91553	364.91162	201.01810	951.00348	44.16198	8.01087	951.51874	231.49432	-71.51502	982.00861	-78.06532	228.97469	515.53577	-22.71624	-27.76249	478.10217	237.13811	187.74173	99.49625	-53.33899	-315.45395	257.32062	66.01750	
544	5.430	99.95903	1491.60449	353.14514	-27.95500	1563.91626	313.75143							188.84508	1532.68433	-24.01396	-106.41709	1464.93042	263.24438	100.10734	1333.39758	180.13510	-54.77296	1528.06531	32.92862	248.50502	1229.30103	-130.73752	-195.09865	1173.79785	269.03064	300.48425	996.12238	-58.49752	-70.04550	985.13098	367.13123	208.71249	951.10687	51.40806	11.69198	952.45825	235.21954	-59.10905	982.01904	-75.23719	233.09898	515.37628	-22.80445	-13.00651	481.08508	246.72704	188.05240	99.76310	-53.05684	-299.47272	263.00012	68.81612	
545	5.440	103.52089	1492.56458	357.62704	-23.61739	1564.76855	316.62277							198.21295	1532.89673	-17.80029	-101.30260	1466.41394	264.71182	105.57276	1333.56250	184.91698	-46.13993	1529.23279	35.42105	259.97403	1230.54321	-124.23889	-190.73756	1175.18909	269.45096	311.63373	996.94348	-51.10487	-65.57896	986.73254	369.52380	216.65742	950.99872	58.09629	16.18793	953.94836	240.31956	-47.51739	982.29053	-72.21336	237.51363	514.53406	-23.93512	2.66319	484.31482	255.74152	188.38304	100.10435	-53.05946	-282.47043	267.26749	71.97194	
546	5.450	107.32204	1492.68494	362.34903	-20.43125	1566.14050	320.01147							208.30679	1533.34094	-11.09106	-96.28282	1467.68726	266.26620	110.62450	1334.17480	189.06174	-37.37527	1530.65039	37.68383	271.16571	1231.10657	-117.33730	-186.79601	1176.82703	270.18604	322.18066	998.01086	-42.68607	-61.86137	988.88800	371.69440	224.82779	951.87793	66.09534	18.52104	954.68896	244.96744	-37.63314	983.64630	-70.01959	242.17259	514.95154	-23.63835	16.29618	488.60904	264.30185	189.19173	100.92516	-52.50080	-265.97324	270.45154	75.86568	
547	5.460	110.58459	1492.88281	366.72635	-15.54889	1566.53918	322.71890							217.36215	1533.70422	-4.63662	-91.25141	1468.99670	268.17917	115.62096	1334.12927	193.34267	-29.15281	1531.91199	40.60536	282.85754	1231.13159	-109.16330	-182.81404	1178.36011	270.82129	332.64859	998.55322	-34.30574	-58.01589	990.69678	374.02939	232.67049	952.31659	72.78555	22.05157	955.91028	249.52112	-26.82693	984.01971	-66.36735	246.65845	516.84149	-22.55011	31.08682	493.41040	271.78452	189.75064	101.67668	-52.24955	-248.55774	272.38531	79.77028	
548	5.470	112.69038	1493.16956	371.67300	-11.46142	1567.27222	325.23398							226.74475	1533.54834	2.59260	-86.37034	1469.62305	269.43948	120.62469	1334.56763	197.66634	-20.67495	1532.86047	43.42459	294.15149	1232.34009	-101.88191	-178.21512	1179.69592	271.25760	342.33328	999.20117	-25.58610	-53.99288	992.36469	376.53528	237.82793	951.60028	79.93605	25.63338	957.03113	254.54321	-19.02969	986.04614	-62.22754	251.46487	518.89307	-18.23369	44.52650	499.24335	277.89578	189.77539	102.36281	-51.96919	-230.92085	273.13013	83.97304	
549	5.480	117.23299	1493.27771	375.49512	-7.43282	1567.74268	327.87839							235.87146	1534.40759	8.70751	-82.03931	1470.70764	271.53476	125.70962	1335.26221	203.08438	-12.62299	1533.97729	45.71741	304.31845	1232.47644	-92.18719	-173.47035	1180.71179	271.97864	352.22543	999.47400	-16.94809	-50.09626	994.60193	378.93875	244.29559	951.69202	86.28338	27.90177	956.90033	258.87708	-11.44664	986.87714	-57.44781	255.52237	520.32965	-12.74638	56.96870	505.14313	283.90164	189.97823	102.34804	-51.55351	-213.18738	272.64655	87.75957	
550	5.490	118.77057	1493.97693	379.93564	-3.90300	1568.54578	330.61746							244.16357	1534.25806	16.12232	-78.02014	1471.98254	273.13452	130.83960	1335.51111	208.46483	-4.62230	1535.02917	48.41110	314.71442	1231.44470	-83.80518	-168.98296	1182.05884	272.36310	360.78775	999.82770	-8.11217	-47.57660	996.43243	381.58890	250.50850	952.00146	92.84386	30.96041	957.66339	263.38556	-4.99619	988.33795	-53.29126	260.35379	520.83667	-5.73081	69.39713	511.13364	290.01666	190.02565	102.34647	-51.20454	-195.08174	270.67422	92.74895	
